<?xml version="1.0" encoding="utf-8"?>
<!-- Generator: Adobe Illustrator 19.1.0, SVG Export Plug-In . SVG Version: 6.00 Build 0)  -->
<svg version="1.1" xmlns="http://www.w3.org/2000/svg" xmlns:xlink="http://www.w3.org/1999/xlink" x="0px" y="0px"
	 viewBox="0 0 408 337.3" style="enable-background:new 0 0 408 337.3;" xml:space="preserve">
<style type="text/css">
	.st0{fill:#1E84A4;}
	.st1{display:none;fill:#D0EAF1;}
	.st2{fill:#FFFFFF;}
	.st3{font-family:'ArialMT';}
	.st4{font-size:11.4px;}
	.st5{display:none;}
</style>
<g id="Shapes">
	<polygon id="Vestre_aker" class="st0" points="24.8,111.4 4.6,76.4 24.8,41.4 65.2,41.4 85.4,76.4 65.2,111.4 	"/>
	<polygon id="Ullern" class="st0" points="24.8,185.1 4.6,150.1 24.8,115.1 65.2,115.1 85.4,150.1 65.2,185.1 	"/>
	<polygon id="Nordre_aker" class="st0" points="88.6,74.5 68.4,39.5 88.6,4.5 129,4.5 149.2,39.5 129,74.5 	"/>
	<polygon id="Frogner" class="st0" points="88.6,221.9 68.4,186.9 88.6,151.9 129,151.9 149.2,186.9 129,221.9 	"/>
	<polygon id="St.hanshaugen" class="st0" points="88.6,148.2 68.4,113.2 88.6,78.2 129,78.2 149.2,113.2 129,148.2 	"/>
	<polygon id="Sagene" class="st0" points="152.4,111.4 132.2,76.4 152.4,41.4 192.8,41.4 213,76.4 192.8,111.4 	"/>
	<polygon id="Grunerløkka" class="st0" points="152.4,185.1 132.2,150.1 152.4,115.1 192.8,115.1 213,150.1 192.8,185.1 	"/>
	<polygon id="Bjerke" class="st0" points="216.1,148.2 195.9,113.2 216.1,78.2 256.5,78.2 276.7,113.2 256.5,148.2 	"/>
	<polygon id="Alna" class="st0" points="279.9,185.1 259.7,150.1 279.9,115.1 320.3,115.1 340.5,150.1 320.3,185.1 	"/>
	<polygon id="Østensjø" class="st0" points="279.9,258.8 259.7,223.8 279.9,188.8 320.3,188.8 340.5,223.8 320.3,258.8 	"/>
	<polygon id="Søndre_nordstrand" class="st0" points="279.9,332.5 259.7,297.5 279.9,262.5 320.3,262.5 340.5,297.5 320.3,332.5 	
		"/>
	<polygon id="Nordstrand" class="st0" points="216.1,295.6 195.9,260.6 216.1,225.6 256.5,225.6 276.7,260.6 256.5,295.6 	"/>
	<polygon id="Gamle_Oslo" class="st0" points="216.1,221.9 195.9,186.9 216.1,151.9 256.5,151.9 276.7,186.9 256.5,221.9 	"/>
	<polygon id="Grorud" class="st0" points="279.9,111.4 259.7,76.4 279.9,41.4 320.3,41.4 340.5,76.4 320.3,111.4 	"/>
	<polygon id="Stovner" class="st0" points="343.7,148.2 323.5,113.2 343.7,78.2 384.1,78.2 404.3,113.2 384.1,148.2 	"/>
	<polygon id="Sentrum" class="st1" points="152.4,258.8 132.2,223.8 152.4,188.8 192.8,188.8 213,223.8 192.8,258.8 	"/>
</g>
<g id="Labels">
	<text transform="matrix(1 0 0 1 28.5264 76.5671)"><tspan x="0" y="0" class="st2 st3 st4">Vestre</tspan><tspan x="4.8" y="13.7" class="st2 st3 st4">Aker</tspan></text>
	<text transform="matrix(1 0 0 1 29.1128 154.2072)" class="st2 st3 st4">Ullern</text>
	<text transform="matrix(1 0 0 1 89.0454 191.567)" class="st2 st3 st4">Frogner</text>
	<text transform="matrix(1 0 0 1 85.2427 111.567)"><tspan x="0" y="0" class="st2 st3 st4">St. Hans-</tspan><tspan x="4.7" y="13.7" class="st2 st3 st4">haugen</tspan></text>
	<text transform="matrix(1 0 0 1 91.5771 37.567)"><tspan x="0" y="0" class="st2 st3 st4">Nordre</tspan><tspan x="5.7" y="13.7" class="st2 st3 st4">Aker</tspan></text>
	<text transform="matrix(1 0 0 1 153.3477 80.5065)" class="st2 st3 st4">Sagene</text>
	<text transform="matrix(1 0 0 1 153.3618 149.8664)"><tspan x="0" y="0" class="st2 st3 st4">Grüner-</tspan><tspan x="6" y="13.7" class="st2 st3 st4">løkka</tspan></text>
	<text transform="matrix(1 0 0 1 220.6231 116.0578)" class="st2 st3 st4">Bjerke</text>
	<text transform="matrix(1 0 0 1 288.3706 154.0578)" class="st2 st3 st4">Alna</text>
	<text transform="matrix(1 0 0 1 276.9736 228.0578)" class="st2 st3 st4">Østensjø</text>
	<text transform="matrix(1 0 0 1 281.8672 292.5671)"><tspan x="0" y="0" class="st2 st3 st4">Søndre</tspan><tspan x="-9.5" y="13.7" class="st2 st3 st4">Nordstrand</tspan></text>
	<text transform="matrix(1 0 0 1 208.5825 265.3571)" class="st2 st3 st4">Nordstrand</text>
	<text transform="matrix(1 0 0 1 218.9912 186.0158)"><tspan x="0" y="0" class="st2 st3 st4">Gamle</tspan><tspan x="5.1" y="13.7" class="st2 st3 st4">Oslo</tspan></text>
	<text transform="matrix(1 0 0 1 282.8189 79.2072)" class="st2 st3 st4">Grorud</text>
	<text transform="matrix(1 0 0 1 343.9194 117.2072)" class="st2 st3 st4">Stovner</text>
	<text transform="matrix(1 0 0 1 150.6782 228.0578)" class="st5 st3 st4">Sentrum</text>
</g>
</svg>
